<svg width="24" height="24" viewBox="0 0 24 24" fill="none" xmlns="http://www.w3.org/2000/svg">
<path fill-rule="evenodd" clip-rule="evenodd" d="M2.81999 15.8L2.52699 16.872C2.41799 17.2145 2.26499 17.7185 2.18249 18.167C2.03051 18.5683 1.97227 18.9989 2.01224 19.4261C2.0522 19.8533 2.1893 20.2657 2.41306 20.6318C2.63683 20.9979 2.94133 21.308 3.30329 21.5383C3.66525 21.7687 4.07509 21.9133 4.50149 21.961C4.89749 22.018 5.34549 22.015 5.84749 21.941L8.15399 21.623C8.43776 21.5838 8.70377 21.4622 8.91898 21.2731C9.13418 21.084 9.2891 20.8359 9.36449 20.5595L10.952 14.7285L2.81999 15.8Z" fill="url(#paint0_linear_2717_16423)"/>
<path d="M5.06917 16.0754C2.63767 16.4519 2.13867 18.2864 2.13867 18.2864L4.46717 9.73144L16.6332 8.08594L14.9742 14.1119C14.9312 14.2717 14.8427 14.4155 14.7195 14.5258C14.5963 14.6361 14.4437 14.7083 14.2802 14.7334L14.2122 14.7449L5.00067 16.0869L5.06917 16.0754Z" fill="url(#paint1_linear_2717_16423)"/>
<path d="M5.06917 16.0754C2.63767 16.4519 2.13867 18.2864 2.13867 18.2864L4.46717 9.73144L16.6332 8.08594L14.9742 14.1119C14.9312 14.2717 14.8427 14.4155 14.7195 14.5258C14.5963 14.6361 14.4437 14.7083 14.2802 14.7334L14.2122 14.7449L5.00067 16.0869L5.06917 16.0754Z" fill="url(#paint2_linear_2717_16423)" fill-opacity="0.8"/>
<path d="M6.44886 10.6176L19.9179 8.62756C20.0734 8.60592 20.2192 8.53888 20.3368 8.43482C20.4545 8.33077 20.5389 8.19432 20.5794 8.04256L21.9694 3.01256C22.0049 2.8857 22.0084 2.75203 21.9797 2.62347C21.9509 2.49491 21.8908 2.37547 21.8046 2.27583C21.7184 2.17619 21.6089 2.09945 21.4859 2.05246C21.3628 2.00547 21.23 1.9897 21.0994 2.00656L8.24836 3.90506C7.56868 4.01551 6.93507 4.31897 6.42297 4.7793C5.91087 5.23964 5.54185 5.83745 5.35986 6.50156L3.50586 13.2191C3.87786 11.8606 4.10686 11.0416 6.44886 10.6176Z" fill="url(#paint3_linear_2717_16423)"/>
<path d="M6.44886 10.6176L19.9179 8.62756C20.0734 8.60592 20.2192 8.53888 20.3368 8.43482C20.4545 8.33077 20.5389 8.19432 20.5794 8.04256L21.9694 3.01256C22.0049 2.8857 22.0084 2.75203 21.9797 2.62347C21.9509 2.49491 21.8908 2.37547 21.8046 2.27583C21.7184 2.17619 21.6089 2.09945 21.4859 2.05246C21.3628 2.00547 21.23 1.9897 21.0994 2.00656L8.24836 3.90506C7.56868 4.01551 6.93507 4.31897 6.42297 4.7793C5.91087 5.23964 5.54185 5.83745 5.35986 6.50156L3.50586 13.2191C3.87786 11.8606 4.10686 11.0416 6.44886 10.6176Z" fill="url(#paint4_linear_2717_16423)"/>
<path d="M6.44886 10.6176L19.9179 8.62756C20.0734 8.60592 20.2192 8.53888 20.3368 8.43482C20.4545 8.33077 20.5389 8.19432 20.5794 8.04256L21.9694 3.01256C22.0049 2.8857 22.0084 2.75203 21.9797 2.62347C21.9509 2.49491 21.8908 2.37547 21.8046 2.27583C21.7184 2.17619 21.6089 2.09945 21.4859 2.05246C21.3628 2.00547 21.23 1.9897 21.0994 2.00656L8.24836 3.90506C7.56868 4.01551 6.93507 4.31897 6.42297 4.7793C5.91087 5.23964 5.54185 5.83745 5.35986 6.50156L3.50586 13.2191C3.87786 11.8606 4.10686 11.0416 6.44886 10.6176Z" fill="url(#paint5_linear_2717_16423)" fill-opacity="0.4"/>
<path d="M6.44867 10.6178C4.49817 10.9708 4.01367 11.5988 3.69167 12.5833L2.13867 18.2882C2.13867 18.2882 2.63467 16.4718 5.03667 16.0833L14.2127 14.7467L14.2807 14.7358C14.4442 14.7105 14.5968 14.6383 14.7201 14.5278C14.8433 14.4174 14.9317 14.2735 14.9747 14.1138L16.3397 9.15625L6.44867 10.6178Z" fill="url(#paint6_linear_2717_16423)"/>
<path d="M6.44867 10.6178C4.49817 10.9708 4.01367 11.5988 3.69167 12.5833L2.13867 18.2882C2.13867 18.2882 2.63467 16.4718 5.03667 16.0833L14.2127 14.7467L14.2807 14.7358C14.4442 14.7105 14.5968 14.6383 14.7201 14.5278C14.8433 14.4174 14.9317 14.2735 14.9747 14.1138L16.3397 9.15625L6.44867 10.6178Z" fill="url(#paint7_linear_2717_16423)" fill-opacity="0.2"/>
<path fill-rule="evenodd" clip-rule="evenodd" d="M5.03785 16.0827C3.00785 16.4112 2.34135 17.7557 2.18285 18.1652C2.03068 18.5665 1.9723 18.9973 2.01217 19.4246C2.05204 19.8519 2.18911 20.2644 2.41289 20.6307C2.63667 20.9969 2.94124 21.3071 3.3033 21.5375C3.66537 21.7679 4.07533 21.9125 4.50185 21.9602C4.89785 22.0172 5.34585 22.0142 5.84785 21.9402L8.15435 21.6222C8.43819 21.583 8.70424 21.4612 8.91945 21.272C9.13466 21.0829 9.28955 20.8346 9.36485 20.5582L10.8119 15.2422L5.03835 16.0832L5.03785 16.0827Z" fill="url(#paint8_linear_2717_16423)"/>
<defs>
<linearGradient id="paint0_linear_2717_16423" x1="6.47649" y1="22.0005" x2="6.47649" y2="14.7285" gradientUnits="userSpaceOnUse">
<stop offset="0.056" stop-color="#2AAC94"/>
<stop offset="0.155" stop-color="#239C87"/>
<stop offset="0.372" stop-color="#177E71"/>
<stop offset="0.588" stop-color="#0E6961"/>
<stop offset="0.799" stop-color="#095D57"/>
<stop offset="1" stop-color="#085954"/>
</linearGradient>
<linearGradient id="paint1_linear_2717_16423" x1="15.6647" y1="16.7234" x2="8.64217" y2="9.08594" gradientUnits="userSpaceOnUse">
<stop offset="0.042" stop-color="#ABE88E"/>
<stop offset="0.549" stop-color="#2AAA92"/>
<stop offset="0.906" stop-color="#117865"/>
</linearGradient>
<linearGradient id="paint2_linear_2717_16423" x1="-1.59183" y1="16.3519" x2="5.09067" y2="14.0729" gradientUnits="userSpaceOnUse">
<stop stop-color="#6AD6F9"/>
<stop offset="1" stop-color="#6AD6F9" stop-opacity="0"/>
</linearGradient>
<linearGradient id="paint3_linear_2717_16423" x1="3.50586" y1="7.60956" x2="21.2939" y2="7.60956" gradientUnits="userSpaceOnUse">
<stop offset="0.043" stop-color="#25FFD4"/>
<stop offset="0.874" stop-color="#55DDB9"/>
</linearGradient>
<linearGradient id="paint4_linear_2717_16423" x1="3.50586" y1="5.12356" x2="19.5294" y2="12.5641" gradientUnits="userSpaceOnUse">
<stop stop-color="#6AD6F9"/>
<stop offset="0.23" stop-color="#60E9D0"/>
<stop offset="0.651" stop-color="#6DE9BB"/>
<stop offset="0.994" stop-color="#ABE88E"/>
</linearGradient>
<linearGradient id="paint5_linear_2717_16423" x1="4.98836" y1="6.51556" x2="13.7014" y2="8.44256" gradientUnits="userSpaceOnUse">
<stop stop-color="white" stop-opacity="0"/>
<stop offset="0.459" stop-color="white"/>
<stop offset="1" stop-color="white" stop-opacity="0"/>
</linearGradient>
<linearGradient id="paint6_linear_2717_16423" x1="7.87717" y1="13.9792" x2="8.08317" y2="7.86925" gradientUnits="userSpaceOnUse">
<stop offset="0.205" stop-color="#063D3B" stop-opacity="0"/>
<stop offset="0.586" stop-color="#063D3B" stop-opacity="0.237"/>
<stop offset="0.872" stop-color="#063D3B" stop-opacity="0.75"/>
</linearGradient>
<linearGradient id="paint7_linear_2717_16423" x1="1.40417" y1="13.3718" x2="8.84967" y2="14.7723" gradientUnits="userSpaceOnUse">
<stop stop-color="white" stop-opacity="0"/>
<stop offset="0.459" stop-color="white"/>
<stop offset="1" stop-color="white" stop-opacity="0"/>
</linearGradient>
<linearGradient id="paint8_linear_2717_16423" x1="6.78385" y1="19.9847" x2="5.33135" y2="12.8812" gradientUnits="userSpaceOnUse">
<stop offset="0.064" stop-color="#063D3B" stop-opacity="0"/>
<stop offset="0.17" stop-color="#063D3B" stop-opacity="0.135"/>
<stop offset="0.562" stop-color="#063D3B" stop-opacity="0.599"/>
<stop offset="0.85" stop-color="#063D3B" stop-opacity="0.9"/>
<stop offset="1" stop-color="#063D3B"/>
</linearGradient>
</defs>
</svg>
